<svg xmlns="http://www.w3.org/2000/svg" xmlns:xlink="http://www.w3.org/1999/xlink" width="500" zoomAndPan="magnify" viewBox="0 0 375 374.999991" height="500" preserveAspectRatio="xMidYMid meet" version="1.0"><defs><clipPath id="e95949ee91"><path d="M 53.265625 34.007812 L 321.765625 34.007812 L 321.765625 340.757812 L 53.265625 340.757812 Z M 53.265625 34.007812 " clip-rule="nonzero"/></clipPath></defs><g clip-path="url(#e95949ee91)"><path fill="#ae274f" d="M 148.726562 37.328125 C 153.398438 32.953125 160.648438 33.011719 165.324219 37.386719 C 181.863281 52.90625 197.382812 69.625 211.886719 87.722656 C 218.476562 79.09375 225.96875 69.6875 234.058594 62.015625 C 238.792969 57.582031 246.101562 57.582031 250.835938 62.078125 C 271.570312 81.851562 289.128906 107.980469 301.472656 132.789062 C 313.640625 157.238281 321.730469 182.226562 321.730469 199.84375 C 321.730469 276.308594 261.921875 340.90625 187.496094 340.90625 C 112.230469 340.90625 53.265625 276.25 53.265625 199.785156 C 53.265625 176.773438 63.929688 148.667969 80.46875 120.863281 C 97.1875 92.636719 120.800781 63.214844 148.726562 37.328125 Z M 188.515625 283.378906 C 203.675781 283.378906 217.097656 279.183594 229.742188 270.796875 C 254.972656 253.175781 261.742188 217.941406 246.582031 190.257812 C 243.886719 184.863281 236.996094 184.503906 233.097656 189.058594 L 218 206.617188 C 214.042969 211.171875 206.910156 211.050781 203.195312 206.316406 C 193.308594 193.730469 175.632812 171.261719 165.5625 158.496094 C 161.789062 153.703125 154.597656 153.640625 150.761719 158.4375 C 130.507812 183.902344 120.320312 199.964844 120.320312 218 C 120.378906 259.050781 150.703125 283.378906 188.515625 283.378906 Z M 188.515625 283.378906 " fill-opacity="1" fill-rule="nonzero"/></g></svg>